<svg width="94" height="99" viewBox="0 0 94 99" fill="none" xmlns="http://www.w3.org/2000/svg">
<path d="M13.0933 44.621C13.6988 39.7632 14.776 35.1217 16.3108 30.8247C20.7956 11.9477 31.9336 6.67782 46.9579 6.04273L47.1127 6.03597L47.2676 6.04273C64.2914 6.76565 73.7537 14.2989 77.6823 30.5747C79.3297 35.1217 80.4633 40.0605 81.0687 45.229C82.4628 42.4657 82.9837 38.1485 83.3428 35.2163L83.3709 34.973C83.3498 32.2232 82.4275 31.0139 81.4419 29.7369C80.6041 28.6357 79.6465 27.3925 79.5339 25.4737C78.7735 12.8328 68.2481 0.536377 47.0564 0.536377C24.879 0.536377 15.3463 12.7314 14.5789 25.4737C14.4592 27.4128 13.4665 28.6424 12.5935 29.7302C11.5445 31.0341 10.5447 32.2705 10.7348 35.2838C11.0235 39.8713 12.0232 42.7765 13.0933 44.621Z" fill="#009A4E"/>
<path d="M46.8585 67.9233C46.8515 67.9233 46.8515 67.9233 46.8444 67.9233C46.8374 67.9233 46.8374 67.9233 46.8304 67.9233H46.8092C44.0424 67.7206 39.5013 65.6599 35.3545 62.0791V62.9372C35.3545 62.9372 44.0424 70.869 46.8092 71.0717H46.8304C46.8374 71.0717 46.8374 71.0717 46.8444 71.0717C46.8515 71.0717 46.8515 71.0717 46.8585 71.0717H46.8796C49.6465 70.869 58.3344 62.9372 58.3344 62.9372V62.0791C54.1876 65.6599 49.6465 67.7206 46.8796 67.9233H46.8585Z" fill="#009A4E"/>
<path d="M92.15 90.7258C91.7769 88.9083 90.5167 83.4763 89.3409 82.0778C87.7991 80.2401 81.181 76.7065 79.0055 75.5917C77.1961 69.3895 76.5555 63.5588 75.9641 52.8637C75.9711 52.7218 75.9782 52.5934 75.9852 52.4515C75.9711 52.4651 75.957 52.4718 75.943 52.4853C75.9359 52.4043 75.9359 52.3299 75.9289 52.2489L72.2326 55.35C68.8603 57.7485 65.3189 59.6605 61.5805 60.6064L60.8764 68.6936C60.8764 78.5915 54.5964 83.098 47.0068 83.098C39.4595 83.098 33.2146 78.605 33.1935 68.7206L32.4824 58.4308C30.8209 56.4242 29.3635 53.4515 28.3215 50.8976C29.2157 34.2975 45.5917 36.6351 56.7015 26.9061C66.0793 41.7969 65.9315 48.5937 65.8118 51.1003C61.6227 53.6204 57.9828 54.2149 52.7096 54.3974C52.1674 53.3231 51.0269 52.5732 49.6962 52.5732C47.8376 52.5732 46.338 54.019 46.338 55.7959C46.338 57.5795 47.8446 59.0186 49.6962 59.0186C49.8089 59.0186 49.9216 58.9984 50.0342 58.9848C51.2592 58.8632 52.2871 58.1268 52.7659 57.0931C63.1153 56.7215 68.29 54.2622 76.0415 47.4181C76.0275 44.3102 75.8585 41.2091 75.4642 38.135C73.3521 20.6498 63.4884 10.7857 47.1054 10.0898C30.5885 10.7924 20.6968 20.5958 18.5776 38.1418C18.3382 40.0741 18.1411 43.5198 18.0566 45.2831C17.3385 59.6605 16.8316 68.2612 14.6913 75.5985C8.91108 78.551 5.13741 81.0711 4.30664 82.1386C3.39842 83.3209 1.41304 88.9556 0.321777 98.5495H65.3823H93.3751C93.0301 95.5497 92.6006 92.9351 92.15 90.7258Z" fill="#009A4E"/>
</svg>
