<svg width="90" height="118" viewBox="0 0 90 118" fill="none" xmlns="http://www.w3.org/2000/svg">
<path d="M76.8058 3.43797C76.8058 1.75616 75.3946 0.401367 73.6428 0.401367H63.5938C61.8419 0.401367 60.4307 1.75616 60.4307 3.43797V7.50235H76.8058V3.43797Z" fill="#009A4E"/>
<path d="M5.65997 20.1393H6.17091V32.7762H5.65997C3.47011 32.7762 1.71823 34.4814 1.71823 36.5603C1.71823 38.6626 3.49444 40.3444 5.65997 40.3444H84.1299C86.3197 40.3444 88.0716 38.6392 88.0716 36.5603C88.0716 34.4581 86.2954 32.7762 84.1299 32.7762H83.5946V20.1393H84.1299C87.0254 20.1393 89.3856 17.8735 89.3856 15.0705C89.3856 12.2675 87.0254 10.0017 84.1299 10.0017H5.65997C2.74015 10.0017 0.404297 12.2675 0.404297 15.0705C0.404297 17.8735 2.74015 20.1393 5.65997 20.1393Z" fill="#009A4E"/>
<path d="M84.1299 106.986H83.5946V94.3491H84.1299C86.3197 94.3491 88.0716 92.644 88.0716 90.5651C88.0716 88.4628 86.2954 86.781 84.1299 86.781H5.65997C3.47011 86.781 1.71823 88.4862 1.71823 90.5651C1.71823 92.6673 3.49444 94.3491 5.65997 94.3491H6.17091V106.986H5.65997C2.74015 106.986 0.404297 109.252 0.404297 112.055C0.404297 114.834 2.76449 117.1 5.65997 117.1H84.1299C87.0254 117.1 89.3856 114.834 89.3856 112.055C89.3856 109.228 87.0254 106.986 84.1299 106.986Z" fill="#009A4E"/>
<path d="M83.5945 83.0203V44.0818H6.1709V83.0203H83.5945ZM44.8827 48.6367C53.4718 48.6367 60.4307 55.3172 60.4307 63.5627C60.4307 71.8083 53.4718 78.4888 44.8827 78.4888C36.2936 78.4888 29.3348 71.8083 29.3348 63.5627C29.3348 55.3172 36.2936 48.6367 44.8827 48.6367Z" fill="#009A4E"/>
<path d="M44.8831 74.074C48.6545 74.074 51.7446 71.1308 51.7446 67.4869C51.7446 64.4736 50.1388 62.2779 48.4356 59.9421C46.9513 57.8865 45.4184 55.7843 44.8831 53.028C44.3478 55.7843 42.8149 57.9099 41.3307 59.9654C39.6518 62.3013 38.0459 64.5204 38.0459 67.4635C38.0459 71.1308 41.1117 74.074 44.8831 74.074Z" fill="#009A4E"/>
</svg>
