<svg width="71" height="93" viewBox="0 0 71 93" fill="none" xmlns="http://www.w3.org/2000/svg">
<path d="M60.2617 3.26133C60.2617 1.94265 59.1551 0.880371 57.7815 0.880371H49.9023C48.5286 0.880371 47.4221 1.94265 47.4221 3.26133V6.44815H60.2617V3.26133Z" fill="#009A4E"/>
<path d="M4.47733 16.3565H4.87796V26.2649H4.47733C2.7603 26.2649 1.38668 27.602 1.38668 29.232C1.38668 30.8803 2.77938 32.199 4.47733 32.199H66.0044C67.7214 32.199 69.095 30.862 69.095 29.232C69.095 27.5836 67.7023 26.2649 66.0044 26.2649H65.5846V16.3565H66.0044C68.2747 16.3565 70.1252 14.58 70.1252 12.3822C70.1252 10.1844 68.2747 8.40781 66.0044 8.40781H4.47733C2.18795 8.40781 0.356445 10.1844 0.356445 12.3822C0.356445 14.58 2.18795 16.3565 4.47733 16.3565Z" fill="#009A4E"/>
<path d="M66.0044 84.4518H65.5846V74.5433H66.0044C67.7214 74.5433 69.095 73.2063 69.095 71.5763C69.095 69.928 67.7023 68.6093 66.0044 68.6093H4.47733C2.7603 68.6093 1.38668 69.9463 1.38668 71.5763C1.38668 73.2247 2.77938 74.5433 4.47733 74.5433H4.87796V84.4518H4.47733C2.18795 84.4518 0.356445 86.2283 0.356445 88.4261C0.356445 90.6056 2.20703 92.3822 4.47733 92.3822H66.0044C68.2747 92.3822 70.1252 90.6056 70.1252 88.4261C70.1252 86.21 68.2747 84.4518 66.0044 84.4518Z" fill="#009A4E"/>
<path d="M65.5843 65.6606V35.1295H4.87769V65.6606H65.5843ZM35.231 38.7009C41.9656 38.7009 47.422 43.939 47.422 50.4042C47.422 56.8694 41.9656 62.1075 35.231 62.1075C28.4964 62.1075 23.0401 56.8694 23.0401 50.4042C23.0401 43.939 28.4964 38.7009 35.231 38.7009Z" fill="#009A4E"/>
<path d="M35.2311 58.6459C38.1882 58.6459 40.6111 56.3382 40.6111 53.4811C40.6111 51.1184 39.352 49.3968 38.0165 47.5654C36.8528 45.9536 35.6508 44.3053 35.2311 42.1441C34.8113 44.3053 33.6094 45.9719 32.4457 47.5837C31.1293 49.4152 29.8701 51.1551 29.8701 53.4628C29.8701 56.3382 32.274 58.6459 35.2311 58.6459Z" fill="#009A4E"/>
</svg>
