<svg width="91" height="88" viewBox="0 0 91 88" fill="none" xmlns="http://www.w3.org/2000/svg">
<path d="M77.3578 13.4375C68.8713 5.2928 57.5838 0.800049 45.5736 0.800049C33.5697 0.800049 22.2821 5.28667 13.7893 13.4375C-0.00520372 26.6765 -3.29235 47.477 5.78886 64.0365L6.01268 64.4416L0.5 87.2L24.2135 81.9094L24.6356 82.1242C31.05 85.3649 38.2894 87.0773 45.58 87.0773C57.5838 87.0773 68.8713 82.5907 77.3578 74.446C85.8315 66.3136 90.5 55.4806 90.5 43.9417C90.5 32.4029 85.8315 21.5699 77.3578 13.4375ZM51.6938 39.7558L45.6631 60.2495C45.3945 61.1456 45.5288 62.1215 46.034 62.9194C46.5328 63.7173 47.3642 64.2881 48.3171 64.4845C49.1229 64.6503 49.5898 65.0799 49.7497 65.798C49.8967 66.4731 49.82 67.5841 48.5857 69.0448C46.2258 71.8375 43.0794 73.4455 39.9457 73.4455C37.7778 73.4455 35.9167 72.6599 34.836 71.2851C33.8703 70.0637 33.6209 68.4495 34.1197 66.7371L40.1504 46.2372C40.4126 45.3411 40.2783 44.3652 39.7795 43.5735C39.2807 42.7756 38.4493 42.2048 37.4964 42.0084C36.6906 41.8427 36.2237 41.413 36.0639 40.6949C35.8528 39.7252 36.2557 38.602 37.2278 37.442C39.6388 34.5818 42.6509 33.0105 45.7078 33.0105C47.8822 33.0105 49.7816 33.833 50.9136 35.2692C51.8984 36.5274 52.1734 38.1171 51.6938 39.7558ZM50.4531 29.5182C46.4561 29.5182 43.2073 26.4003 43.2073 22.5642C43.2073 18.7282 46.4561 15.6103 50.4531 15.6103C54.4501 15.6103 57.6989 18.7282 57.6989 22.5642C57.7053 26.3941 54.4501 29.5182 50.4531 29.5182Z" fill="#009A4E"/>
</svg>
