<svg width="93" height="98" viewBox="0 0 93 98" fill="none" xmlns="http://www.w3.org/2000/svg">
<path d="M54.3231 50.3484L43.2675 53.7261C42.0353 54.0984 41.3237 53.3538 41.6795 52.0645L44.9076 40.4966C45.2634 39.2073 46.3048 38.9349 47.2072 39.8792L49.4027 42.1764L71.9824 18.5504C70.8803 16.008 71.3229 12.9117 73.3274 10.8142L83.6627 0L83.4544 0.799041L80.235 13.3566L92.2364 9.98796L93 9.77005L82.6648 20.5843C80.6689 22.6727 77.7097 23.1357 75.2713 21.9917L52.6916 45.6177L54.8871 47.9149C55.8243 48.8865 55.5553 49.9761 54.3231 50.3484ZM61.6818 54.1529C61.6818 65.5664 52.8044 74.8461 41.9051 74.8461C30.9971 74.8461 22.1284 65.5573 22.1284 54.1529C22.1284 42.7394 31.0058 33.4597 41.9051 33.4597C44.9336 33.4597 47.7973 34.177 50.366 35.4482L54.9652 30.6358C51.1296 28.2931 46.6692 26.9493 41.9051 26.9493C27.5433 26.9493 15.9064 39.1256 15.9064 54.1529C15.9064 69.1802 27.5433 81.3564 41.9051 81.3564C56.2669 81.3564 67.9038 69.1802 67.9038 54.1529C67.9038 48.832 66.4373 43.8744 63.912 39.6794L59.3649 44.4373C60.8401 47.3429 61.6818 50.648 61.6818 54.1529ZM40.5167 41.7678C34.5897 42.4851 29.9818 47.7515 29.9818 54.1529C29.9818 61.0446 35.3186 66.6288 41.9051 66.6288C48.3006 66.6288 53.4987 61.3624 53.8024 54.7431L44.3696 57.6214C43.8056 57.7939 43.2328 57.8847 42.6861 57.8847C41.0807 57.8847 39.6229 57.1493 38.703 55.8508C37.7398 54.507 37.4708 52.7001 37.9654 50.9204L40.5167 41.7678ZM70.8716 32.3973C75.089 38.5263 77.5882 46.0445 77.5882 54.1529C77.5882 74.7372 61.5777 91.4897 41.9051 91.4897C22.2325 91.4897 6.22197 74.7372 6.22197 54.1529C6.22197 33.5686 22.2325 16.8161 41.9051 16.8161C49.342 16.8161 56.2495 19.2132 61.9769 23.2992L66.4459 18.623C59.5471 13.3929 51.0775 10.3058 41.9051 10.3058C18.7614 10.3058 0 29.9366 0 54.1529C0 78.3691 18.7614 98 41.9051 98C65.0488 98 83.8102 78.3691 83.8102 54.1529C83.8102 44.2285 80.6515 35.0759 75.3407 27.7302L70.8716 32.3973Z" fill="#009A4E"/>
</svg>
