<svg width="117" height="144" viewBox="0 0 117 144" fill="none" xmlns="http://www.w3.org/2000/svg">
<path d="M13.7527 35.1831L36.1553 13.843L27.1529 4.84063L21.9581 10.065L11.8931 0L0.440918 11.4817L10.4764 21.5172L5.28155 26.712L13.7527 35.1831Z" fill="#009A4E"/>
<path d="M75.825 79.162H48.4636V106.523H75.825V79.162Z" fill="#009A4E"/>
<path d="M110.418 3.33531H62.1886C58.5581 3.33531 53.4519 5.3719 50.8544 7.88076L11.9818 44.8939C9.35485 47.4028 7.2002 52.391 7.2002 55.9919V136.482C7.2002 140.113 10.1518 143.064 13.7823 143.064H110.418C114.048 143.064 117 140.113 117 136.482V9.88788C117 6.31644 114.048 3.33531 110.418 3.33531ZM95.5712 121.134L90.4355 126.27L77.9797 113.784H46.2499L33.7646 126.27L28.6288 121.134L41.2027 108.56V77.1254L28.6288 64.5516L33.7646 59.4158L46.2499 71.9011H77.9502L90.4059 59.4158L95.5417 64.5516L83.0564 77.0369V108.649L95.5712 121.134ZM92.8853 45.6318H43.2393C39.6088 45.6318 38.8119 43.5952 41.4388 41.0863L57.8793 25.4133C60.5062 22.9044 65.6124 20.8678 69.2134 20.8678H92.8853C96.5158 20.8678 99.4674 23.8194 99.4674 27.4499V39.0202C99.4674 42.6507 96.5158 45.6318 92.8853 45.6318Z" fill="#009A4E"/>
</svg>
