<svg width="288" height="288" viewBox="0 0 288 288" fill="none" xmlns="http://www.w3.org/2000/svg">
<g clip-path="url(#clip0)">
<path d="M106.537 229.2C72.2052 226.2 41.9173 213.456 22.1773 193.752C10.9453 182.52 4.12926 170.328 1.05726 155.964C-0.358739 149.436 -0.346739 138.588 1.05726 132C5.34126 112.032 18.2533 94.56 38.5693 81.24C84.9132 50.8441 155.905 51.0001 201.817 81.6C207.913 85.656 211.849 88.884 217.369 94.32C224.329 101.196 229.225 108.024 234.385 118.08C234.577 118.44 235.525 118.92 236.497 119.112C239.737 119.784 244.093 122.328 247.585 125.592C250.297 128.112 252.397 130.872 257.569 138.708C262.789 146.604 286.417 183.072 287.857 185.46C288.409 186.396 287.305 187.884 286.057 187.884C285.181 187.884 284.545 187.284 283.249 185.244L269.857 164.46C247.057 129.156 245.821 127.524 239.473 124.344L236.137 122.664H226.333C216.541 122.664 216.529 122.676 216.289 123.708C214.993 129.348 214.753 130.74 215.041 131.004C215.221 131.172 220.777 134.34 227.401 138.036L239.425 144.78L238.681 146.352C238.261 147.216 237.793 147.936 237.625 147.936C237.457 147.936 227.329 142.32 215.125 135.468C202.909 128.628 192.205 122.82 191.341 122.58C187.861 121.62 182.533 125.46 182.533 128.928C182.533 132.432 183.577 133.464 205.021 151.02C218.401 161.988 226.057 168.564 227.221 170.124C229.357 172.956 231.505 177.132 233.497 182.268C236.977 191.316 242.653 196.356 251.953 198.684L255.013 199.452L254.761 201.132C254.69 201.776 254.541 202.408 254.317 203.016C253.921 203.46 247.753 201.492 244.189 199.776C238.609 197.1 234.769 193.284 231.001 186.648C229.36 187.141 227.739 187.698 226.141 188.316C221.449 190.02 221.221 190.164 216.781 194.496C197.869 212.952 170.749 224.748 137.989 228.756C132.673 229.416 112.189 229.704 106.537 229.2V229.2ZM139.141 223.524C154.165 221.532 165.817 218.556 178.021 213.564C190.825 208.32 202.897 200.784 211.345 192.768L214.669 189.6L206.293 185.604C197.341 181.32 196.453 180.612 195.313 176.784C194.593 174.384 195.409 171.804 197.689 169.332L199.477 167.4L195.589 164.448C192.517 162.108 191.557 161.088 190.957 159.528C190.486 158.315 190.326 157.003 190.491 155.711C190.657 154.42 191.143 153.191 191.905 152.136L193.081 150.48L180.805 148.32C176.122 147.538 171.456 146.65 166.813 145.656C165.793 145.26 164.881 144.629 164.151 143.813C163.421 142.998 162.894 142.022 162.613 140.964C162.349 139.86 168.373 110.484 169.717 106.284C170.187 105.203 170.888 104.239 171.771 103.459C172.655 102.68 173.699 102.104 174.829 101.772C176.857 101.4 213.049 107.76 214.849 108.816C217.705 110.472 218.605 113.16 217.705 117.276L217.321 119.004H219.325C220.429 119.004 223.045 118.86 225.121 118.704L228.913 118.404L227.029 114.924C221.341 104.34 211.069 93.708 198.373 85.26C192.445 81.324 179.809 75.096 172.201 72.372C160.382 68.2763 148.128 65.5623 135.685 64.284C128.785 63.564 110.701 63.564 104.005 64.296C87.9372 66.048 73.3573 69.6841 60.6013 75.1201C31.0813 87.708 11.2213 108.552 6.14526 132.324C4.82526 138.528 4.70526 149.4 5.92926 155.052C8.61726 167.532 14.4853 178.344 24.0373 188.412C43.4773 208.896 73.2012 221.484 108.829 224.34C113.593 224.712 134.281 224.16 139.141 223.524V223.524ZM132.625 201.156C130.789 200.628 128.929 198.432 128.545 196.356C128.281 194.988 128.593 194.052 130.537 190.284C138.409 175.044 141.829 161.04 141.829 144.024C141.829 127.584 138.805 114.804 131.281 99.468C129.661 96.18 128.341 93.12 128.341 92.688C128.341 91.056 129.709 88.692 131.185 87.768C133.213 86.484 136.609 86.724 138.241 88.248C138.865 88.848 140.485 91.5 141.841 94.176C147.229 104.736 150.913 116.34 152.737 128.412C153.865 135.888 154.093 150.048 153.193 156.888C151.681 169.009 148.194 180.801 142.873 191.796C139.633 198.456 137.617 201.204 135.913 201.204C135.503 201.214 135.096 201.275 134.701 201.384C134.001 201.453 133.294 201.376 132.625 201.156ZM110.713 189.696C107.905 188.868 105.865 185.412 106.681 182.82C106.885 182.196 108.205 179.304 109.633 176.4C115.58 164.52 118.11 151.222 116.941 137.988C115.933 127.356 114.025 120.648 109.225 110.832C105.997 104.244 105.853 103.224 107.725 100.584C109.501 98.064 113.953 97.644 116.281 99.792C117.901 101.28 122.941 111.792 124.873 117.744C131.301 137.478 130.312 158.879 122.089 177.936C117.865 187.848 114.901 190.908 110.713 189.696V189.696ZM88.1292 178.068C87.2303 177.632 86.4378 177.004 85.8076 176.229C85.1773 175.453 84.7246 174.549 84.4812 173.58C84.2292 172.452 84.6493 171.204 86.7252 167.016C94.3092 151.656 94.3932 136.848 86.9652 121.836C83.7133 115.236 83.6412 113.928 86.4012 111.324C87.7572 110.04 88.3332 109.812 90.2412 109.812C93.4452 109.812 95.1132 111.432 97.9692 117.312C102.373 126.36 104.185 134.208 104.161 144.264C104.161 154.584 102.469 161.688 97.7652 171.228C95.0652 176.688 93.7332 178.128 91.0452 178.5C90.0528 178.589 89.0534 178.441 88.1292 178.068V178.068ZM67.0452 167.244C65.4149 166.381 64.1842 164.918 63.6133 163.164C63.0973 161.34 63.5173 159.888 65.5933 156.48C68.2573 152.1 68.8812 149.76 68.8812 144.024C68.8812 138.3 68.2573 135.948 65.5933 131.568C64.8036 130.316 64.1288 128.994 63.5772 127.62C62.7252 124.74 65.1253 121.2 68.3533 120.588C71.0893 120.072 72.9732 121.308 75.4932 125.232C79.0634 130.9 80.9579 137.463 80.9579 144.162C80.9579 150.861 79.0634 157.424 75.4932 163.092C72.9132 167.076 70.0452 168.492 67.0452 167.244V167.244ZM224.125 184.92C226.561 184.044 228.673 183.228 228.805 183.084C228.949 182.952 228.481 181.392 227.761 179.616C226.297 175.992 226.537 176.076 221.353 177.072C215.737 178.152 212.485 177.192 206.353 172.68C204.673 171.444 202.957 170.436 202.513 170.436C202.081 170.436 201.133 171.072 200.389 171.864C198.829 173.544 198.589 176.184 199.861 177.744C200.977 179.1 216.385 186.432 218.221 186.468C219.025 186.492 221.689 185.796 224.125 184.92V184.92ZM221.701 173.124C223.981 172.668 224.233 172.512 223.837 171.78C223.405 170.964 202.093 153.276 200.245 152.196C198.721 151.308 197.485 151.512 196.225 152.868C192.517 156.828 192.949 157.668 202.537 165.024C214.105 173.88 215.329 174.408 221.701 173.124ZM193.093 146.352C193.093 146.232 190.681 144.156 187.717 141.732C180.421 135.72 178.861 133.476 178.861 129.036C178.861 125.316 181.333 121.74 185.317 119.676C187.671 118.62 190.311 118.379 192.817 118.992C194.233 119.448 200.593 122.892 209.413 127.968L211.273 129.036L212.809 121.764C214.369 114.324 214.405 112.38 212.953 111.924C206.664 110.72 200.364 109.576 194.053 108.492C176.377 105.372 174.445 105.192 173.629 106.524C173.185 107.244 166.465 138.396 166.465 139.728C166.465 140.388 166.801 141.216 167.209 141.552C167.617 141.9 173.353 143.136 179.953 144.312C192.697 146.604 193.093 146.664 193.093 146.352Z" fill="#009A4E"/>
</g>
<defs>
<clipPath id="clip0">
<rect width="288" height="288" fill="white"/>
</clipPath>
</defs>
</svg>
