<svg width="116" height="111" viewBox="0 0 116 111" fill="none" xmlns="http://www.w3.org/2000/svg">
<path d="M57.8656 110.342C26.2341 110.342 0.5 85.6373 0.5 55.271C0.5 24.9047 26.2341 0.199982 57.8656 0.199982C89.4971 0.199982 115.231 24.9047 115.231 55.271C115.231 85.6373 89.4971 110.342 57.8656 110.342ZM57.8656 5.28962C29.153 5.28962 5.79509 27.7132 5.79509 55.2773C5.79509 82.8415 29.153 105.265 57.8656 105.265C86.5782 105.265 109.936 82.8415 109.936 55.2773C109.936 27.7132 86.5782 5.28962 57.8656 5.28962Z" fill="#009A4E"/>
<path d="M53.0407 88.5538L22.0049 53.6888L32.9856 44.6787L50.7771 64.6687C60.8179 49.1838 72.712 34.868 86.2277 22.0009L96.4075 31.8434C81.4025 46.1275 68.5222 62.305 58.124 79.944L53.0407 88.5538Z" fill="#009A4E"/>
</svg>
