<svg width="93" height="98" viewBox="0 0 93 98" fill="none" xmlns="http://www.w3.org/2000/svg">
<path d="M92.9999 54.1345H80.1523V87.3672H92.9999V54.1345Z" fill="#009A4E"/>
<path d="M12.8476 54.1345H0V87.3672H12.8476V54.1345Z" fill="#009A4E"/>
<path d="M62.5336 31.5144H30.4829V39.1556H62.5336V31.5144Z" fill="#009A4E"/>
<path d="M17.0393 98H75.9609V43.4814H17.0393V98ZM46.5001 54.0941C54.2529 54.0941 60.5404 61.5532 60.5404 70.7508C60.5404 79.9484 54.2529 87.4076 46.5001 87.4076C38.7473 87.4076 32.4598 79.9484 32.4598 70.7508C32.4598 61.5532 38.7473 54.0941 46.5001 54.0941Z" fill="#009A4E"/>
<path d="M46.5001 83.0007C50.0613 83.0007 52.958 79.5643 52.958 75.3395C52.958 71.8423 51.4415 69.2751 49.8398 66.5461C48.4426 64.1608 46.9942 61.7148 46.5001 58.5007C46.006 61.7148 44.5576 64.181 43.1434 66.5865C41.5417 69.3155 40.0422 71.8828 40.0422 75.3395C40.0422 79.5643 42.9389 83.0007 46.5001 83.0007Z" fill="#009A4E"/>
<path d="M43.2796 16.4749V27.6939H49.7204V16.4749C51.0836 15.6865 52.2081 14.3927 52.9408 12.816L80.5443 14.696V2.66833L52.9408 4.54827C51.697 1.83952 49.2774 0 46.5 0C43.7226 0 41.3031 1.83952 40.0592 4.54827L12.4557 2.66833V14.696L40.0592 12.816C40.7919 14.3927 41.9165 15.6663 43.2796 16.4749Z" fill="#009A4E"/>
</svg>
