<svg width="93" height="98" viewBox="0 0 93 98" fill="none" xmlns="http://www.w3.org/2000/svg">
<path d="M73.2796 85.0173H0V98.0001H73.2796V85.0173Z" fill="#009A4E"/>
<path d="M74.48 0.544849L74.0037 1.91639L69.5643 0L67.9066 3.75767L72.6319 5.78681L71.946 7.74079L76.5759 9.33781V15.1434L85.2834 18.1495V23.5606H86.7505V59.8409C86.7505 62.9034 84.2354 65.3835 81.1297 65.3835C78.043 65.3835 75.5089 62.9034 75.5089 59.8409V37.2573C75.5089 31.7711 71.0885 27.2807 65.563 27.0552V6.9141H7.75488V80.7523H65.563V31.7523C68.4592 31.9778 70.7456 34.3451 70.7456 37.2573L70.7646 59.8409C70.7646 65.4774 75.4136 70.0805 81.1297 70.0805C86.8457 70.0805 91.4948 65.4962 91.4948 59.8409V23.5606H93V6.93291L74.48 0.544849ZM85.2643 15.6695L78.9385 13.49V10.1645L85.2643 12.3439V15.6695ZM57.4272 39.8313H15.8526V17.3792H57.4272V39.8313Z" fill="#009A4E"/>
</svg>
