<svg width="110" height="103" viewBox="0 0 110 103" fill="none" xmlns="http://www.w3.org/2000/svg">
<path d="M17.3116 49.3901C15.9956 56.3292 12.1458 61.6277 8.39423 66.8132C4.15161 72.6774 0.125 78.2023 0.125 85.6504C0.125 94.7579 7.82458 102.15 17.3116 102.15C26.7985 102.15 34.4981 94.7391 34.4981 85.6504C34.4981 78.1269 30.4715 72.5831 26.2093 66.7189C22.4773 61.5712 18.6472 56.2915 17.3116 49.3901Z" fill="#009A4E"/>
<path d="M24.9128 48.2022H31.3161L31.7285 32.3254H24.9128V36.0966H17.3115V44.4122H24.9128V48.2022Z" fill="#009A4E"/>
<path d="M71.3964 41.5755L61.0508 51.5101L71.3994 61.4419L81.745 51.5073L71.3964 41.5755Z" fill="#009A4E"/>
<path d="M108.626 47.5045L60.7985 1.58992C59.4236 0.269994 57.204 0.269994 55.8291 1.58992L37.6016 19.0884C36.2463 20.3895 35.0874 22.9916 35.0285 24.8583L34.3214 52.3883C34.2821 54.255 35.3624 56.8383 36.7177 58.1394L67.1427 87.3475C68.5177 88.6486 70.7373 88.6486 72.1122 87.3475L108.626 52.294C109.982 50.9552 109.982 48.8056 108.626 47.5045ZM44.0047 40.3015L44.2994 28.6673C44.3583 26.8006 45.4976 24.2173 46.8725 22.8973L55.8095 14.3178C57.1844 12.9979 59.4235 12.9979 60.7788 14.3178L65.159 18.5227C66.5339 19.8426 66.5339 21.9734 65.159 23.2933L46.401 41.3197C45.0261 42.602 43.9458 42.1494 44.0047 40.3015ZM85.2721 53.4254L73.2906 64.9276V73.9785H69.4212V64.871L57.5379 53.4631H48.0313V49.7484H57.4594L69.4409 38.2462V29.1953H73.3103V38.2462L85.2525 49.7107H94.6806V53.4442L85.2721 53.4254Z" fill="#009A4E"/>
</svg>
