<svg width="91" height="86" viewBox="0 0 91 86" fill="none" xmlns="http://www.w3.org/2000/svg">
<path d="M81.827 0.200012H9.0475C4.48374 0.200012 0.749756 3.78923 0.749756 8.17604V23.171V77.424C0.749756 81.8108 4.48374 85.4 9.0475 85.4H81.827C86.3908 85.4 90.1248 81.8108 90.1248 77.424V23.171V8.17604C90.1248 3.78923 86.3908 0.200012 81.827 0.200012ZM78.0681 7.17106C80.6653 7.17106 82.773 9.19695 82.773 11.6935C82.773 14.19 80.6653 16.2158 78.0681 16.2158C75.4709 16.2158 73.3633 14.19 73.3633 11.6935C73.3716 9.18898 75.4709 7.17106 78.0681 7.17106ZM65.6215 7.17106C68.2187 7.17106 70.3264 9.19695 70.3264 11.6935C70.3264 14.19 68.2187 16.2158 65.6215 16.2158C63.0243 16.2158 60.9167 14.19 60.9167 11.6935C60.925 9.18898 63.0243 7.17106 65.6215 7.17106ZM83.4866 77.424C83.4866 78.2854 82.7232 79.0192 81.827 79.0192H9.0475C8.15134 79.0192 7.38795 78.2854 7.38795 77.424V23.171H83.4866V77.424ZM26.1409 32.0642C27.51 32.0642 28.6302 33.141 28.6302 34.457V41.6355C28.6302 42.9515 27.51 44.0283 26.1409 44.0283H18.6729C17.3038 44.0283 16.1836 42.9515 16.1836 41.6355V34.457C16.1836 33.141 17.3038 32.0642 18.6729 32.0642H26.1409ZM26.1409 28.0762H18.6729C15.0136 28.0762 12.0347 30.9396 12.0347 34.457V41.6355C12.0347 45.1529 15.0136 48.0163 18.6729 48.0163H26.1409C29.8002 48.0163 32.7791 45.1529 32.7791 41.6355V34.457C32.7791 30.9396 29.8002 28.0762 26.1409 28.0762ZM26.1409 57.7869C27.51 57.7869 28.6302 58.8637 28.6302 60.1797V67.3582C28.6302 68.6742 27.51 69.751 26.1409 69.751H18.6729C17.3038 69.751 16.1836 68.6742 16.1836 67.3582V60.1797C16.1836 58.8637 17.3038 57.7869 18.6729 57.7869H26.1409ZM26.1409 53.7989H18.6729C15.0136 53.7989 12.0347 56.6623 12.0347 60.1797V67.3582C12.0347 70.8756 15.0136 73.739 18.6729 73.739H26.1409C29.8002 73.739 32.7791 70.8756 32.7791 67.3582V60.1797C32.7791 56.6623 29.8002 53.7989 26.1409 53.7989ZM73.3716 42.0343H40.1806C37.8905 42.0343 36.0318 40.2476 36.0318 38.0462C36.0318 35.8449 37.8905 34.0582 40.1806 34.0582H73.3716C75.6618 34.0582 77.5205 35.8449 77.5205 38.0462C77.5205 40.2476 75.6618 42.0343 73.3716 42.0343ZM73.3716 67.757H40.1806C37.8905 67.757 36.0318 65.9703 36.0318 63.7689C36.0318 61.5676 37.8905 59.7809 40.1806 59.7809H73.3716C75.6618 59.7809 77.5205 61.5676 77.5205 63.7689C77.5205 65.9703 75.6618 67.757 73.3716 67.757Z" fill="#009A4E"/>
</svg>
