<svg width="30" height="30" viewBox="0 0 30 30" fill="none" xmlns="http://www.w3.org/2000/svg">
<path d="M24.9745 10.8703C25.5898 12.3539 27.6303 12.9523 29.7682 12.3872C30.0828 14.1436 30.0717 15.9138 29.7682 17.6173C27.6303 17.0522 25.5898 17.6507 24.9745 19.1342C24.3593 20.6178 25.381 22.4855 27.2907 23.596C26.2996 25.0156 25.058 26.2737 23.5938 27.2952C22.4802 25.383 20.6123 24.3643 19.1313 24.9766C17.6476 25.5917 17.0463 27.632 17.6142 29.7696C15.8548 30.0842 14.0843 30.0702 12.3834 29.7668C12.9485 27.6292 12.3472 25.589 10.8662 24.9738C9.38247 24.3587 7.51454 25.3774 6.40381 27.2896C4.98407 26.2987 3.72579 25.0573 2.70414 23.5932C4.61939 22.4827 5.63827 20.6122 5.02305 19.1315C4.40783 17.6479 2.3673 17.0467 0.229344 17.6145C-0.0824419 15.8554 -0.071304 14.0879 0.23213 12.3845C2.37009 12.9495 4.41061 12.3511 5.02305 10.8675C5.63827 9.38395 4.6194 7.51628 2.70971 6.4057C3.69796 4.98616 4.94232 3.72806 6.40659 2.70655C7.51733 4.62154 9.38804 5.64027 10.869 5.02514C12.3528 4.41 12.9541 2.36975 12.3862 0.229311C14.1428 -0.0824303 15.9133 -0.071294 17.6169 0.232098C17.0491 2.36976 17.6504 4.41 19.1341 5.02514C20.6151 5.64027 22.4858 4.62154 23.5966 2.70934C25.0135 3.70023 26.2718 4.94162 27.2962 6.4057C25.3782 7.51628 24.3593 9.38674 24.9745 10.8703ZM14.9946 8.22048C11.256 8.22048 8.21328 11.2627 8.21328 15.0009C8.21328 18.7418 11.256 21.784 14.9946 21.784C18.736 21.784 21.7787 18.7418 21.7787 15.0009C21.7759 11.2627 18.7333 8.22048 14.9946 8.22048Z" fill="#009A4E"/>
</svg>
