<svg width="97" height="93" viewBox="0 0 97 93" fill="none" xmlns="http://www.w3.org/2000/svg">
<path fill-rule="evenodd" clip-rule="evenodd" d="M19.9155 46.3496C19.9155 31.2888 32.6324 19.0795 48.3219 19.0795C64.0101 19.0795 76.7282 31.2888 76.7282 46.3496C76.7282 61.4103 64.009 73.6197 48.3219 73.6197C32.6324 73.6197 19.9155 61.4103 19.9155 46.3496ZM36.1239 40.8592L30.7669 46.002L45.4463 60.0942L65.304 41.0651L59.9147 35.8925L45.4463 49.8098L36.1239 40.8592Z" fill="#009A4E"/>
<path d="M90.1961 23.6046L87.8589 24.8743C97.8673 41.8589 94.8117 63.3652 80.4298 77.173C66.0468 90.9785 43.6454 93.914 25.9589 84.3093C25.387 83.9949 24.8151 83.6662 24.2582 83.333C21.5854 81.7158 19.0983 79.8285 16.8349 77.7353H21.4367V75.1584H12.2101V84.0148H14.8943V79.5196C17.31 81.7645 19.9689 83.7857 22.833 85.5169C23.4245 85.87 24.0241 86.2154 24.6306 86.5486C32.002 90.5512 40.1425 92.4983 48.2369 92.4983C60.7197 92.4983 73.0872 87.8647 82.3277 78.9938C97.5606 64.3703 100.796 41.5932 90.1961 23.6046ZM16.2146 15.5252C30.6011 1.71526 52.9989 -1.21586 70.6981 8.40882C71.2158 8.68112 71.7705 8.9977 72.3954 9.37406C75.0728 10.9924 77.561 12.8819 79.8245 14.9762H75.2077V17.5531H84.4332V8.69662H81.7489V13.1774C79.3367 10.937 76.6824 8.91911 73.824 7.1912C73.1541 6.78718 72.5545 6.44625 72.0057 6.15734C53.2757 -4.02633 29.553 -0.923634 14.3167 13.7021C-0.916183 28.3256 -4.15162 51.1028 6.4483 69.0913L8.78552 67.8228C-1.22289 50.8393 1.83267 29.3329 16.2146 15.5252Z" fill="#009A4E"/>
</svg>
