<svg width="86" height="82" viewBox="0 0 86 82" fill="none" xmlns="http://www.w3.org/2000/svg">
<path d="M73.1763 11.9507C65.1454 4.24753 54.476 0 43.125 0C31.7739 0 21.0978 4.24099 13.0737 11.9507C5.04953 19.6539 0.625 29.903 0.625 40.8C0.625 63.2943 19.6866 81.6 43.125 81.6C66.5634 81.6 85.625 63.2943 85.625 40.8C85.625 29.903 81.2073 19.6604 73.1763 11.9507ZM43.125 70.3888C26.7222 70.3888 13.3805 57.5742 13.3805 41.8275V38.542L7.41519 39.8052L15.8347 25.2038L24.2543 39.8052L18.289 38.542V41.821C18.289 54.9694 29.4287 65.67 43.125 65.67C56.8212 65.67 67.9678 54.9759 67.9678 41.821C67.9678 29.5757 58.1916 19.2808 45.5793 18.0897V40.9701C45.5793 42.2725 44.4748 43.3263 43.125 43.3263C41.7683 43.3263 40.6707 42.266 40.6707 40.9701V13.2597H43.125C59.5277 13.2597 72.8763 26.0677 72.8763 41.821C72.8763 57.5807 59.5277 70.3888 43.125 70.3888Z" fill="#009A4E"/>
</svg>
