<svg width="98" height="81" viewBox="0 0 98 81" fill="none" xmlns="http://www.w3.org/2000/svg">
<path d="M8.73572 0.536987H0.964844V80.2H97.2091V72.7589H8.73572V0.536987Z" fill="#009A4E"/>
<path d="M51.258 42.2716L48.443 45.1072L46.7778 43.4325V68.3438H53.3989V40.1592L51.258 42.2716Z" fill="#009A4E"/>
<path d="M57.918 35.6489V68.3438H64.5391V29.0452L57.918 35.6489Z" fill="#009A4E"/>
<path d="M35.6162 32.2993V68.3437H42.2374V38.9221L35.6162 32.2993Z" fill="#009A4E"/>
<path d="M80.2197 19.0349V68.3437H86.8409V25.6577L80.2197 19.0349Z" fill="#009A4E"/>
<path d="M75.7005 17.9121L69.0596 24.5158V68.3437H71.7357H75.7005V17.9121Z" fill="#009A4E"/>
<path d="M19.9359 45.5829L15.7927 49.7316L14.0879 51.4254V68.3437H19.9359V45.5829Z" fill="#009A4E"/>
<path d="M91.3608 68.3437H97.2088V35.9914L91.3608 30.168V68.3437Z" fill="#009A4E"/>
<path d="M31.0967 34.4691L24.4756 41.0728V68.3439H25.1496H31.0967V34.4691Z" fill="#009A4E"/>
<path d="M48.4424 32.3565L73.8106 7.74377L77.4049 11.0039L48.4424 39.8927L34.4271 25.9241L14.0879 46.0777V38.5606L34.4469 18.3879L48.4424 32.3565Z" fill="#009A4E"/>
<path d="M66.5815 5.90647L83.8199 1.60475L79.061 18.1536L74.4519 13.6432L71.2572 10.4971L66.5815 5.90647Z" fill="#009A4E"/>
</svg>
