<svg width="90" height="77" viewBox="0 0 90 77" fill="none" xmlns="http://www.w3.org/2000/svg">
<path d="M89.7339 42.7729H77.4238V68.5398H89.7339V42.7729Z" fill="#009A4E"/>
<path d="M12.935 42.7729H0.625V68.5398H12.935V42.7729Z" fill="#009A4E"/>
<path d="M60.5423 25.2347H29.8325V31.1593H60.5423V25.2347Z" fill="#009A4E"/>
<path d="M16.9512 76.7841H73.4075V34.5133H16.9512V76.7841ZM45.1794 42.7418C52.6078 42.7418 58.6322 48.5252 58.6322 55.6565C58.6322 62.7878 52.6078 68.5713 45.1794 68.5713C37.7509 68.5713 31.7265 62.7878 31.7265 55.6565C31.7265 48.5252 37.7509 42.7418 45.1794 42.7418Z" fill="#009A4E"/>
<path d="M45.1794 65.1544C48.5916 65.1544 51.3671 62.49 51.3671 59.2143C51.3671 56.5028 49.914 54.5123 48.3793 52.3964C47.0406 50.547 45.6529 48.6505 45.1794 46.1584C44.7059 48.6505 43.3182 50.5626 41.9631 52.4277C40.4284 54.5436 38.9917 56.5341 38.9917 59.2143C38.9917 62.49 41.7672 65.1544 45.1794 65.1544Z" fill="#009A4E"/>
<path d="M42.0939 13.5738V22.2724H48.2652V13.5738C49.5713 12.9625 50.6488 11.9594 51.3509 10.7369L77.7995 12.1945V2.86893L51.3509 4.32653C50.159 2.22631 47.8407 0.800049 45.1795 0.800049C42.5183 0.800049 40.2 2.22631 39.0082 4.32653L12.5596 2.86893V12.1945L39.0082 10.7369C39.7102 11.9594 40.7878 12.9469 42.0939 13.5738Z" fill="#009A4E"/>
</svg>
