<svg width="87" height="87" viewBox="0 0 87 87" fill="none" xmlns="http://www.w3.org/2000/svg">
<path d="M86.8499 1.22196C86.5453 0.482517 85.8216 0 85.0229 0C8.2849 0 0 31.8025 0 45.4772C0 50.3968 1.09146 54.9919 3.24675 59.1323C3.57893 59.7729 4.23532 60.1802 4.95511 60.1961C5.63523 60.1763 6.35113 59.8363 6.71093 59.2076C11.8914 50.2544 26.5627 28.1563 50.7923 16.4154C51.785 15.9408 52.9714 16.3481 53.4418 17.325C53.9164 18.3097 53.505 19.496 52.5244 19.9706C50.6974 20.8565 48.9416 21.8213 47.2214 22.8218C46.565 23.2053 45.9282 23.6127 45.2837 24.012C44.3148 24.6132 43.3579 25.226 42.4246 25.8588C41.4953 26.4837 40.5777 27.1244 39.6761 27.7808C39.3953 27.9863 39.1265 28.196 38.8495 28.4056C14.7346 46.375 0 75.0414 0 85.0228C0 86.1143 0.885881 87.0002 1.97734 87.0002C3.06879 87.0002 3.95467 86.1143 3.95467 85.0228C3.95467 81.8354 6.12572 75.3738 10.2344 67.6663C16.198 72.5423 24.2217 75.1365 33.6138 75.1365C59.0059 75.1365 64.3249 50.9742 67.1799 37.9915C71.0238 20.5202 79.4825 10.3136 86.4189 3.37335C86.9883 2.80779 87.1544 1.96139 86.8499 1.22196Z" fill="#009A4E"/>
</svg>
