<svg width="99" height="89" viewBox="0 0 99 89" fill="none" xmlns="http://www.w3.org/2000/svg">
<path d="M82.1424 21.2623C82.1424 9.6269 72.7047 0.188293 61.0704 0.188293C49.4361 0.188293 39.9984 9.6269 39.9984 21.2623C39.9984 32.8977 49.4361 42.3363 61.0704 42.3363C72.7047 42.3363 82.1424 32.8977 82.1424 21.2623Z" fill="#009A4E"/>
<path d="M61.0704 46.5511C82.0147 46.5511 99 59.1061 99 74.5987C99 79.0434 97.608 83.2455 95.1049 86.9749C84.1219 87.7668 72.743 88.1883 61.0704 88.1883C49.3978 88.1883 38.019 87.7668 27.036 86.9749C24.5457 83.2455 23.1409 79.0434 23.1409 74.5987C23.1409 59.1061 40.1261 46.5511 61.0704 46.5511Z" fill="#009A4E"/>
<path d="M27.4064 47.4069C19.4756 47.4069 13.0518 40.9825 13.0518 33.0638C13.0518 25.1323 19.4884 18.7079 27.3936 18.7079C30.3947 18.7079 33.1788 19.6275 35.4775 21.1985C35.4775 21.39 35.452 21.5816 35.452 21.786C35.452 27.7889 37.5337 33.2809 40.9946 37.6362C39.0789 43.3198 33.728 47.4069 27.4064 47.4069Z" fill="#009A4E"/>
<path d="M2.65635 77.6385C0.95782 75.0968 0 72.2359 0 69.2089C0 58.6719 11.5576 50.1273 25.8227 50.1018C27.8916 50.1018 29.8839 50.3061 31.7995 50.6382C23.524 56.5645 18.2879 65.3134 18.2879 75.0585C18.2879 76.1825 18.3773 77.2809 18.505 78.3665C13.1157 78.2516 7.81579 78.0089 2.65635 77.6385Z" fill="#009A4E"/>
</svg>
