<svg width="102" height="68" viewBox="0 0 102 68" fill="none" xmlns="http://www.w3.org/2000/svg">
<path d="M101.499 20.942C101.052 18.7281 97.6223 19.198 95.965 19.3569C94.8648 19.4619 93.7906 19.6734 92.7364 19.9912C92.5037 20.0617 91.2499 20.421 90.3681 20.7527L90.223 20.4501C90.223 20.4487 90.223 20.4487 90.2216 20.4487C90.2173 20.4404 90.213 20.4307 90.2087 20.421C90.2072 20.4197 90.2072 20.4169 90.2058 20.4155L83.74 6.90945C83.1339 5.64218 82.2822 4.54489 81.2094 3.64799C78.5869 1.45617 74.9849 0.199951 71.3269 0.199951H30.6722C27.0128 0.199951 23.4108 1.45617 20.7897 3.64799C19.7168 4.54489 18.8652 5.64218 18.2591 6.90945L11.7933 20.4155C11.7919 20.4169 11.7919 20.4197 11.7904 20.421C11.7876 20.4307 11.7818 20.439 11.7775 20.4487L11.7761 20.4501L11.631 20.7527C10.7492 20.421 9.49394 20.0617 9.26271 19.9912C8.20854 19.672 7.13282 19.4619 6.03412 19.3569C4.37674 19.198 0.947084 18.7281 0.500424 20.942C0.290738 21.9868 0.240469 23.4711 1.19411 24.6015C2.21669 25.8135 4.19721 26.4548 7.08255 26.5086L8.37083 26.3856C7.78773 27.1499 7.1558 27.881 6.47935 28.5775L6.07577 28.9934C4.43132 30.6864 3.51933 32.8436 3.51071 35.0631V62.3889C3.51071 65.1515 5.13936 67.4 7.14143 67.4H15.7673C17.7694 67.4 19.398 65.1515 19.398 62.3889V57.0559H82.5996V62.3889C82.5996 65.1515 84.2283 67.4 86.2304 67.4H94.8562C96.8583 67.4 98.4869 65.1515 98.4869 62.3889V35.0645C98.4783 32.845 97.5678 30.6891 95.9219 28.9948L95.5183 28.5788C94.8419 27.8823 94.2114 27.1513 93.6268 26.387L94.9151 26.51C97.8004 26.4561 99.7824 25.8149 100.804 24.6029C101.76 23.4711 101.71 21.9882 101.499 20.942ZM28.3427 41.3331C28.2307 41.897 27.8673 42.3917 27.3158 42.7248C26.8806 42.9873 26.3722 43.1242 25.8509 43.1242C25.6986 43.1242 25.5435 43.1117 25.3913 43.0896C21.2881 42.458 18.0279 41.6579 15.7012 40.7098C13.7035 39.8972 12.3462 38.9547 11.6655 37.91C11.0666 36.9909 10.9876 35.9849 11.4371 35.0023C11.8938 34.0003 13.152 33.3978 14.4287 33.5692L25.4157 35.0493C26.3722 35.1778 27.1305 35.5689 27.6677 36.2101C28.7965 37.5576 28.6587 39.7397 28.3427 41.3331ZM15.8262 22.5838L22.3566 8.81658L22.3896 8.74748C22.73 8.04405 23.1939 7.44289 23.7684 6.96335C25.5723 5.45423 28.0827 4.5905 30.6593 4.5905H71.3412C73.9178 4.5905 76.4283 5.45423 78.2293 6.96196C78.8066 7.44289 79.2705 8.04406 79.6095 8.7461L79.6454 8.82072L86.1729 22.5838C75.7978 21.9716 63.6676 21.6482 50.9988 21.6482C38.3315 21.6482 26.2013 21.9716 15.8262 22.5838ZM90.3336 37.91C89.6543 38.9547 88.2956 39.8972 86.2979 40.7098C83.9712 41.6579 80.711 42.458 76.6078 43.0896C76.4541 43.1131 76.3005 43.1242 76.1482 43.1242C75.6269 43.1242 75.1185 42.9873 74.6833 42.7248C74.1318 42.3917 73.7684 41.8983 73.6564 41.3331C73.3419 39.7397 73.204 37.5576 74.3314 36.2087C74.8686 35.5675 75.6254 35.1764 76.5834 35.0479L87.5704 33.5678C88.8471 33.3964 90.1052 33.999 90.562 35.0009C91.0115 35.9849 90.9325 36.9909 90.3336 37.91Z" fill="#009A4E"/>
</svg>
