<svg width="90" height="118" viewBox="0 0 90 118" fill="none" xmlns="http://www.w3.org/2000/svg">
<path d="M76.7951 3.43803C76.7951 1.75622 75.3839 0.401428 73.632 0.401428H63.583C61.8311 0.401428 60.4199 1.75622 60.4199 3.43803V7.50241H76.7951V3.43803Z" fill="#009A4E"/>
<path d="M5.64922 20.1393H6.16017V32.7762H5.64922C3.45937 32.7762 1.70749 34.4814 1.70749 36.5603C1.70749 38.6626 3.4837 40.3444 5.64922 40.3444H84.1191C86.309 40.3444 88.0609 38.6392 88.0609 36.5603C88.0609 34.4581 86.2847 32.7762 84.1191 32.7762H83.5838V20.1393H84.1191C87.0146 20.1393 89.3748 17.8735 89.3748 15.0705C89.3748 12.2675 87.0146 10.0017 84.1191 10.0017H5.64922C2.72941 10.0017 0.393555 12.2675 0.393555 15.0705C0.393555 17.8735 2.72941 20.1393 5.64922 20.1393Z" fill="#009A4E"/>
<path d="M84.1191 106.986H83.5838V94.3492H84.1191C86.309 94.3492 88.0609 92.6441 88.0609 90.5652C88.0609 88.4629 86.2847 86.7811 84.1191 86.7811H5.64922C3.45937 86.7811 1.70749 88.4863 1.70749 90.5652C1.70749 92.6674 3.4837 94.3492 5.64922 94.3492H6.16017V106.986H5.64922C2.72941 106.986 0.393555 109.252 0.393555 112.055C0.393555 114.835 2.75374 117.1 5.64922 117.1H84.1191C87.0146 117.1 89.3748 114.835 89.3748 112.055C89.3748 109.229 87.0146 106.986 84.1191 106.986Z" fill="#009A4E"/>
<path d="M83.5837 83.0203V44.0818H6.16016V83.0203H83.5837ZM44.8719 48.6367C53.461 48.6367 60.42 55.3172 60.42 63.5627C60.42 71.8083 53.461 78.4888 44.8719 78.4888C36.2828 78.4888 29.324 71.8083 29.324 63.5627C29.324 55.3172 36.2828 48.6367 44.8719 48.6367Z" fill="#009A4E"/>
<path d="M44.8723 74.0741C48.6437 74.0741 51.7339 71.1309 51.7339 67.4869C51.7339 64.4737 50.128 62.278 48.4248 59.9421C46.9406 57.8866 45.4076 55.7843 44.8723 53.028C44.337 55.7843 42.8042 57.9099 41.3199 59.9655C39.6411 62.3013 38.0352 64.5204 38.0352 67.4636C38.0352 71.1309 41.1009 74.0741 44.8723 74.0741Z" fill="#009A4E"/>
</svg>
