<svg width="71" height="93" viewBox="0 0 71 93" fill="none" xmlns="http://www.w3.org/2000/svg">
<path d="M60.78 2.98093C60.78 1.66225 59.6735 0.599976 58.2999 0.599976H50.4206C49.0469 0.599976 47.9404 1.66225 47.9404 2.98093V6.16776H60.78V2.98093Z" fill="#009A4E"/>
<path d="M4.99589 16.0761H5.39651V25.9845H4.99589C3.27885 25.9845 1.90524 27.3215 1.90524 28.9516C1.90524 30.5999 3.29793 31.9186 4.99589 31.9186H66.5229C68.2399 31.9186 69.6136 30.5816 69.6136 28.9516C69.6136 27.3032 68.2209 25.9845 66.5229 25.9845H66.1032V16.0761H66.5229C68.7932 16.0761 70.6438 14.2995 70.6438 12.1017C70.6438 9.90393 68.7932 8.12738 66.5229 8.12738H4.99589C2.70651 8.12738 0.875 9.90393 0.875 12.1017C0.875 14.2995 2.70651 16.0761 4.99589 16.0761Z" fill="#009A4E"/>
<path d="M66.5229 84.1714H66.1032V74.263H66.5229C68.2399 74.263 69.6136 72.926 69.6136 71.2959C69.6136 69.6476 68.2209 68.3289 66.5229 68.3289H4.99589C3.27885 68.3289 1.90524 69.6659 1.90524 71.2959C1.90524 72.9443 3.29793 74.263 4.99589 74.263H5.39651V84.1714H4.99589C2.70651 84.1714 0.875 85.9479 0.875 88.1457C0.875 90.3252 2.72559 92.1018 4.99589 92.1018H66.5229C68.7932 92.1018 70.6438 90.3252 70.6438 88.1457C70.6438 85.9296 68.7932 84.1714 66.5229 84.1714Z" fill="#009A4E"/>
<path d="M66.1032 65.3802V34.8491H5.39648V65.3802H66.1032ZM35.7498 38.4205C42.4844 38.4205 47.9408 43.6586 47.9408 50.1238C47.9408 56.589 42.4844 61.8271 35.7498 61.8271C29.0152 61.8271 23.5589 56.589 23.5589 50.1238C23.5589 43.6586 29.0152 38.4205 35.7498 38.4205Z" fill="#009A4E"/>
<path d="M35.7506 58.3655C38.7077 58.3655 41.1306 56.0578 41.1306 53.2006C41.1306 50.838 39.8715 49.1164 38.536 47.2849C37.3723 45.6732 36.1703 44.0248 35.7506 41.8636C35.3309 44.0248 34.129 45.6915 32.9652 47.3032C31.6488 49.1347 30.3896 50.8746 30.3896 53.1823C30.3896 56.0578 32.7935 58.3655 35.7506 58.3655Z" fill="#009A4E"/>
</svg>
