<svg width="47" height="62" viewBox="0 0 47 62" fill="none" xmlns="http://www.w3.org/2000/svg">
<path d="M40.0365 2.38462C40.0365 1.50698 39.3 0.799988 38.3858 0.799988H33.1418C32.2276 0.799988 31.4912 1.50698 31.4912 2.38462V4.5056H40.0365V2.38462Z" fill="#009A4E"/>
<path d="M2.90961 11.1H3.17624V17.6944H2.90961C1.76685 17.6944 0.852656 18.5842 0.852656 19.6691C0.852656 20.7661 1.77955 21.6438 2.90961 21.6438H43.8583C45.0011 21.6438 45.9153 20.7539 45.9153 19.6691C45.9153 18.572 44.9884 17.6944 43.8583 17.6944H43.579V11.1H43.8583C45.3693 11.1 46.6009 9.91757 46.6009 8.45485C46.6009 6.99212 45.3693 5.80975 43.8583 5.80975H2.90961C1.38594 5.80975 0.166992 6.99212 0.166992 8.45485C0.166992 9.91757 1.38594 11.1 2.90961 11.1Z" fill="#009A4E"/>
<path d="M43.8583 56.4202H43.579V49.8258H43.8583C45.0011 49.8258 45.9153 48.9359 45.9153 47.8511C45.9153 46.754 44.9884 45.8764 43.8583 45.8764H2.90961C1.76685 45.8764 0.852656 46.7662 0.852656 47.8511C0.852656 48.9481 1.77955 49.8258 2.90961 49.8258H3.17624V56.4202H2.90961C1.38594 56.4202 0.166992 57.6026 0.166992 59.0653C0.166992 60.5159 1.39863 61.6982 2.90961 61.6982H43.8583C45.3693 61.6982 46.6009 60.5159 46.6009 59.0653C46.6009 57.5904 45.3693 56.4202 43.8583 56.4202Z" fill="#009A4E"/>
<path d="M43.5785 43.9138V23.5942H3.17578V43.9138H43.5785ZM23.3772 25.9711C27.8593 25.9711 31.4907 29.4573 31.4907 33.7601C31.4907 38.063 27.8593 41.5491 23.3772 41.5491C18.895 41.5491 15.2636 38.063 15.2636 33.7601C15.2636 29.4573 18.895 25.9711 23.3772 25.9711Z" fill="#009A4E"/>
<path d="M23.3775 39.2453C25.3456 39.2453 26.9581 37.7095 26.9581 35.8079C26.9581 34.2355 26.1201 33.0897 25.2313 31.8708C24.4568 30.7981 23.6568 29.701 23.3775 28.2627C23.0982 29.701 22.2982 30.8103 21.5237 31.8829C20.6476 33.1019 19.8096 34.2599 19.8096 35.7957C19.8096 37.7095 21.4094 39.2453 23.3775 39.2453Z" fill="#009A4E"/>
</svg>
