<svg width="59" height="77" viewBox="0 0 59 77" fill="none" xmlns="http://www.w3.org/2000/svg">
<path d="M50.5526 2.19056C50.5526 1.0881 49.6275 0.200012 48.4791 0.200012H41.8918C40.7434 0.200012 39.8184 1.0881 39.8184 2.19056V4.85483H50.5526V2.19056Z" fill="#009A4E"/>
<path d="M3.91588 13.1385H4.25081V21.4222H3.91588C2.48039 21.4222 1.33201 22.54 1.33201 23.9028C1.33201 25.2809 2.49634 26.3833 3.91588 26.3833H55.3542C56.7897 26.3833 57.9381 25.2655 57.9381 23.9028C57.9381 22.5247 56.7737 21.4222 55.3542 21.4222H55.0033V13.1385H55.3542C57.2522 13.1385 58.7994 11.6533 58.7994 9.81584C58.7994 7.97841 57.2522 6.49316 55.3542 6.49316H3.91588C2.0019 6.49316 0.470703 7.97841 0.470703 9.81584C0.470703 11.6533 2.0019 13.1385 3.91588 13.1385Z" fill="#009A4E"/>
<path d="M55.3542 70.0681H55.0033V61.7844H55.3542C56.7897 61.7844 57.9381 60.6666 57.9381 59.3039C57.9381 57.9258 56.7737 56.8234 55.3542 56.8234H3.91588C2.48039 56.8234 1.33201 57.9411 1.33201 59.3039C1.33201 60.682 2.49634 61.7844 3.91588 61.7844H4.25081V70.0681H3.91588C2.0019 70.0681 0.470703 71.5534 0.470703 73.3908C0.470703 75.2129 2.01785 76.6982 3.91588 76.6982H55.3542C57.2522 76.6982 58.7994 75.2129 58.7994 73.3908C58.7994 71.5381 57.2522 70.0681 55.3542 70.0681Z" fill="#009A4E"/>
<path d="M55.0035 54.3582V28.8333H4.25098V54.3582H55.0035ZM29.6272 31.8191C35.2576 31.8191 39.8192 36.1983 39.8192 41.6034C39.8192 47.0084 35.2576 51.3876 29.6272 51.3876C23.9969 51.3876 19.4353 47.0084 19.4353 41.6034C19.4353 36.1983 23.9969 31.8191 29.6272 31.8191Z" fill="#009A4E"/>
<path d="M29.6274 48.4937C32.0997 48.4937 34.1253 46.5644 34.1253 44.1757C34.1253 42.2005 33.0726 40.7612 31.9561 39.23C30.9832 37.8826 29.9783 36.5045 29.6274 34.6977C29.2765 36.5045 28.2717 37.8979 27.2988 39.2453C26.1982 40.7765 25.1455 42.2311 25.1455 44.1604C25.1455 46.5644 27.1552 48.4937 29.6274 48.4937Z" fill="#009A4E"/>
</svg>
